<svg xmlns="http://www.w3.org/2000/svg" version="1.1" xmlns:xlink="http://www.w3.org/1999/xlink" xmlns:svgjs="http://svgjs.dev/svgjs" width="1000" height="1125" viewBox="0 0 1000 1125"><g transform="matrix(1,0,0,1,1.7053025658242404e-13,0)"><svg viewBox="0 0 320 360" data-background-color="#ffffff" preserveAspectRatio="xMidYMid meet" height="1125" width="1000" xmlns="http://www.w3.org/2000/svg" xmlns:xlink="http://www.w3.org/1999/xlink"><g id="tight-bounds" transform="matrix(1,0,0,1,0,0)"><svg viewBox="0 0 320 360" height="360" width="320"><g><svg></svg></g><g><svg viewBox="0 0 320 360" height="360" width="320"><g><path xmlns="http://www.w3.org/2000/svg" d="M20.961 227.22l3.726 4.658-1.863-6.056c-0.466-2.795-3.726 0.466-1.863 1.398M25.153 224.425c1.397 2.329 2.795 4.658 2.795 6.987 0 3.261 2.795 4.658 5.123 5.589-3.261-3.726-5.124-13.974-7.918-12.576M204.017 26.929c7.918 0 15.371-0.932 23.756 0.931 20.495 5.124 37.729 15.371 49.374 29.811l32.606 52.169c1.397 13.042 4.192 27.482 3.726 43.319 3.261 0 2.795-4.658 6.521-5.59-3.726 9.316-5.59 20.961-6.521 34.469-2.329-7.453 0-18.632 0.466-24.687-3.261 5.124-5.124 1.397-5.124-0.932 0.466-3.726-1.397-3.261-2.795-4.658-5.124-4.658-8.384-9.782-12.11-17.7 2.329-6.055 2.795-14.905-4.658-19.563-2.329-1.397-5.124-3.726-6.521-7.453-1.863-5.124-5.124-11.179-4.193-19.097 0.466-2.329-6.987 5.124-11.179 1.863-18.166-12.576-36.332-27.016-58.224-39.127-11.645 0-20.029-4.192-24.221-9.316-3.726-4.658-0.932-10.713 4.658-11.179 3.261 0 6.987-0.932 9.782 0.932 0.466-1.863 2.329-4.192 4.657-4.192M157.904 16.215l0.932 0.466c4.658 0.932 6.987 7.453 12.11 5.124 0 3.261 0.466 6.521-0.466 8.85-1.397 3.726-5.59 3.726-8.85 3.726-31.208-1.863-49.374 11.179-68.471 22.358-5.124 3.261-10.713 5.59-14.906 9.782-20.029 18.632-41.921 35.866-47.045 70.335l-4.192 38.195c-0.466 4.192-5.124 8.384-4.192 13.508l3.26 22.824c-3.261-3.261-5.124 0.932-4.192 2.795 0.466 1.397 2.329 6.055 5.124 1.863 3.726 6.987 7.453 20.495 12.576 26.55 15.837 18.632 36.332 35.4 53.101 52.169 4.192-0.932 7.453-0.932 8.384-3.727 1.397 2.795-1.397 5.59-3.726 6.056 7.453 4.658 15.837 8.85 27.016 9.781 14.44 0.932 27.948 3.261 40.524 6.522 6.521-1.863 13.042-2.795 20.029-3.261 2.329 0 3.726-3.726 6.521-4.658l0.466-4.658c2.795 4.192 2.329-1.397 0.466-4.192 3.261 2.795 4.192 5.124 5.589 6.987 0-1.397 3.726-6.521 3.727-0.466l0.931-6.055c1.397-0.932 1.863 5.124 3.261 0.931 1.397-4.192 4.192-0.932 6.987-2.329-0.932 1.863-0.466 5.59 2.794 3.261l3.727-3.261c2.329 5.59 6.055 3.261 7.918 2.329 20.495-13.042 40.99-28.413 60.553-43.784l-0.466 6.055 2.329-7.453c2.329 2.329 4.192 0.466 5.124-0.931 2.795-4.658 6.521-9.316 12.577-13.508-7.453 20.029-16.303 35.866-27.482 48.908l-4.658 5.59c0 3.261-0.932 7.453-4.658 7.918-1.863 0.466-5.59-0.932-8.384 1.863-1.397 1.863 3.261 5.59-0.466 2.795-3.261-2.329-6.521 0-10.248 0.932-2.795 0.932 1.863 3.726 2.795 5.589 0.932 1.863 1.863 3.726 1.398 6.056l-5.124-5.59c-6.055 3.261-9.782 9.316-14.906 13.974-2.329 1.863-1.397 5.124-1.397 7.918-3.261 0-6.987-0.932-8.85 0.932-1.397 1.863-0.932 4.658-0.932 7.453-4.658-0.466-5.124-7.453-9.315-6.056-4.192 0.932-8.85 1.397-12.577 3.727 2.795 5.59-4.658 2.329-3.726 3.26-6.987-4.192-13.042-7.453-20.495-4.658-15.837-5.124-35.4-2.795-49.84-0.931 0-2.329 0.466-4.658-0.466-5.124-0.932 2.329-3.726 1.397-3.26 1.397-8.85-6.055-17.7-9.782-27.016-14.905-8.384 0.932-16.303-3.261-18.632-5.59-6.521-6.055-13.974-2.795-20.029-4.192-13.042-3.261-17.7-16.769-19.098-26.084-0.932-4.658-4.658-6.521-6.055-6.056-6.055-19.563-15.371-37.263-22.824-55.429-1.863-4.658-1.397-9.316-1.397-14.44 2.329 0.932 4.658 0.466 4.192-2.794-2.329-15.371-7.918-27.016-13.974-38.195 3.261-15.837 3.726-34.469 11.179-48.443 6.521-12.576 18.632-19.098 27.016-29.811 2.795-3.726 2.795-8.85 5.59-12.11 9.316-9.316 18.632-19.098 28.879-27.482 4.658-3.726 10.247 0 17.234-1.397 2.329-8.384 11.645-15.837 20.495-13.508 3.726 0.932 11.179-8.85 13.508-9.782 3.726-1.397 1.863 3.726 1.863 6.987 8.85-6.987 20.961-10.713 32.14-14.906" fill="#ed3b43" fill-rule="nonzero" stroke="none" stroke-width="1" stroke-linecap="butt" stroke-linejoin="miter" stroke-miterlimit="10" stroke-dasharray="" stroke-dashoffset="0" font-family="none" font-weight="none" font-size="none" text-anchor="none" style="mix-blend-mode: normal" data-fill-palette-color="tertiary"></path></g><g transform="matrix(1,0,0,1,78.74471716055736,90)"><svg viewBox="0 0 162.51056567888529 180" height="180" width="162.51056567888529"><g><svg viewBox="0 0 162.51056567888529 180" height="180" width="162.51056567888529"><g><svg viewBox="0 0 192 212.6630958155007" height="180" width="162.51056567888529"><g transform="matrix(1,0,0,1,0,75.98190769668881)"><svg viewBox="0 0 192 136.6811881188119" height="136.6811881188119" width="192"><g id="textblocktransform"><svg viewBox="0 0 192 136.6811881188119" height="136.6811881188119" width="192" id="textblock"><g><svg viewBox="0 0 192 136.6811881188119" height="136.6811881188119" width="192"><g transform="matrix(1,0,0,1,0,0)"><svg width="192" viewBox="2.4000000953674316 -35.099998474121094 50.5 35.94999694824219" height="136.6811881188119" data-palette-color="#ed3b43"><path d="M20.5-32.4Q22.35-30.1 24.75-26.48 27.15-22.85 28.1-21.65 29.05-20.45 29.63-20.45 30.2-20.45 30.65-21.1 31.1-21.75 33.95-26.1 36.8-30.45 38.65-32.73 40.5-35 41.6-35.05 42.7-35.1 44.45-35.1 46.2-35.1 48.55-35 50.9-34.9 51.68-33.77 52.45-32.65 52.6-30.6L52.6-30.6Q52.9-25.35 52.9-16.68 52.9-8 52.45-3L52.45-3Q52.35-1.8 51.55-0.85 50.75 0.1 49.35 0.1L49.35 0.1Q46.3 0.15 42.58 0.15 38.85 0.15 36.65 0L36.65 0Q35.85-0.05 35.23-0.63 34.6-1.2 34.55-2.15L34.55-2.15 34.25-10.4Q34.2-11.6 33.73-11.75 33.25-11.9 32.85-11.1L32.85-11.1Q30.2-6.4 26.25-0.6L26.25-0.6Q25.3 0.85 23.75 0.85 22.2 0.85 21.2-0.6L21.2-0.6Q19.45-3.1 15.25-11.2L15.25-11.2Q15-11.7 14.68-11.8 14.35-11.9 14.1-11.55 13.85-11.2 13.85-10.4L13.85-10.4 13.6-2.15Q13.55-1.2 12.75-0.63 11.95-0.05 10.9 0L10.9 0 5.95 0Q4.6-0.05 3.78-0.95 2.95-1.85 2.8-3L2.8-3Q2.4-7.45 2.4-16.82 2.4-26.2 2.65-30.6L2.65-30.6Q2.8-32.7 3.6-33.85 4.4-35 6.45-35L6.45-35Q16.95-35 17.8-34.85 18.65-34.7 20.5-32.4Z" opacity="1" transform="matrix(1,0,0,1,0,0)" fill="#ed3b43" class="undefined-text-0" data-fill-palette-color="primary" id="text-0"></path></svg></g></svg></g></svg></g></svg></g><g transform="matrix(1,0,0,1,66.336,0)"><svg viewBox="0 0 59.328 56.03684200163931" height="56.03684200163931" width="59.328"><g><svg xmlns="http://www.w3.org/2000/svg" xmlns:xlink="http://www.w3.org/1999/xlink" version="1.1" x="0" y="0" viewBox="6.14900016784668 9.307000160217285 86.49099731445312 81.69300079345703" enable-background="new 0 0 100 100" xml:space="preserve" height="56.03684200163931" width="59.328" class="icon-icon-0" data-fill-palette-color="accent" id="icon-0"><path d="M22.131 91h-6.23l-0.147-1.788 2.96-4.193 7.563-1.73 5.847-7.75-3.137-2.459 2.65-1.565 5.883-6.908 1.656-6.564 4.404 2.005-1.76 1.653c0 0-0.557 4.976-1.136 6.059-0.579 1.085 2.358 3.448 2.358 3.448l-2.362 5.542 0.555 0.564-2.415 6.292L22.131 91zM92.64 88.229l-0.147 1.775-36.979 0.033C55.14 90.605 54.306 91 53.331 91H34.057l4.764-2.779 6.766-9.577-3.578-2.106c0.795-1.509 2.242-4.287 3.013-5.934l-0.102 2.136 2.309 3.431 1.049 4.649-1.68 1.959c0.418 1.221 0.526 2.598 0.886 3.734 0.104 0.324 1.328 2.652 1.598 2.646 3.823-0.096 1.089-6.926 0.661-8.953l-0.206-2.815-1.442-6.031-1.978-5.001L46.062 66c0.156-1.323 0.133-2.034 0.069-2.818-0.06-0.734 1.998 1.074 1.535 0.318L47.5 62.438l1.5-0.318v0.503l5.96 4.089L55 70.347c0 0 0 4.427 0 4.542 0 1.1 0.525 2.305 0.717 3.39-1.158 0.228-1.763 1.266-2.923 1.488-0.426 1.651-1.476 2.897-1.16 4.754 0.12 0.713 3.1-3.12 3.267-3.359 1.097-1.57 2.1-3.141 2.1-4.905v-6.817l-6.218-7.271 0.458-2.881L52 59.092v-1.204l5.793 0.889 2.811 3.443 4.689 3.175 5.817 6.584 0.519 6.38 1.183 2.452 4.989 1.492 0.572 2.899L92.64 88.229zM66.823 78.756c-0.606-1.741-1.542-3.563-1.798-4.335l-0.207-1.786-1.441-3.834c-0.653-1.051-1.229-2.442-2.111-3.326-1.17-1.174-3.506-1.257-4.226-2.815 0.465 1.006 1.301 2.499 1.983 3.432 1.118 1.526 1.331 1.516 1.18 3.587l2.308 2.177 1.05 2.959c0.039 0.107-1.501 1.112-1.68 1.245 0.912 1.582 0.82 3.901 1.979 5.252 1.212-0.716 2.07 0.358 2.417 1.389C67.759 82.493 67.49 80.675 66.823 78.756z" fill="#ff4136" data-fill-palette-color="accent"></path><polyline points="30.919,63.186 23.74,68.818 17.996,76.902 8.662,82.778 6.149,88.902 12.611,88.658 12.972,87.311 15.844,84.741   18.002,81.313 24.11,78.868 29.147,75.938 25.58,73.748 28.497,71.084 34.33,64.531 " fill="#ff4136" data-fill-palette-color="accent"></polyline><path d="M31.569 58.129" fill="#ff4136" data-fill-palette-color="accent"></path><polyline points="67.336,65.104 72.419,70.037 72.782,76.531 73.871,80.165 78.593,80.426 78.956,83.023 83.314,84.842   86.945,82.244 81.135,78.349 77.866,74.713 74.961,68.219 69.514,64.582 65.156,62.766 64.067,59.129 61.888,61.727 " fill="#ff4136" data-fill-palette-color="accent"></polyline><path d="M60.645 45.367c-3.581 1.115-3.484-0.078-2-1.988 1.927-2.479 3.116-4.536 5.496-6.224 2.38-1.686 4.638-3.857 5.226-4.985 0.59-1.125 8.389-6.16 10.591-6.93 2.202-0.772 3.196-0.494-0.429 1.684-11.906 7.153-19.811 16.266-20.67 17.627-0.86 1.357-0.252 1.271 0.237 0.838 0.489-0.436 2.374-0.814 3.289-1.058C61.446 44.906 61.072 45.188 60.645 45.367z" fill="#ff4136" data-fill-palette-color="accent"></path><g fill="#ff4136" data-fill-palette-color="accent"><path d="M40.325 41.256c-1.791-1.206-7.426-3.058-8.534-3.203 0.176 0.481 0.337 0.5 0.143 0.748 4.274 2.466 5.979 3.643 10.005 8.033 0.601 0.658 1.97 0.985 3.293 1.34 1.326 0.354 0.296-0.417-0.562-1.255-0.861-0.841-4.891-5.187-6.07-5.43-1.177-0.245-1.252-0.894 0.367-0.316C40.583 41.746 40.993 41.708 40.325 41.256z" fill="#ff4136" data-fill-palette-color="accent"></path><path d="M41.241 48.792c-0.859-0.839-5.729-4.02-7.394-4.235-2.679-0.485-3.592-0.014-1.686 0.233 1.745 0.228 2.514 0.829 3.438 1.175 0.921 0.349 4.689 2.384 5.135 2.671C41.184 48.921 41.822 49.275 41.241 48.792z" fill="#ff4136" data-fill-palette-color="accent"></path><path d="M28.707 49.982c1.652-0.016 8.051 0.41 9.143 0.689 1.092 0.278 4.632 1.288 5.198 1.903 0.563 0.622 0.384 0.462-0.32 0.597-0.704 0.138-3.771 0.467-5.421 0.114-1.647-0.353-8.597-1.801-9.151-1.874C28.718 51.121 28.998 50.52 28.707 49.982z" fill="#ff4136" data-fill-palette-color="accent"></path><path d="M27.03 50.129c-0.351 0.386-0.358 0.749-0.16 1.253-2.255-0.34-2.847-0.417-3.174-0.413C23.775 50.385 26.234 50.07 27.03 50.129z" fill="#ff4136" data-fill-palette-color="accent"></path><path d="M24.826 45.473c-0.627-0.08-1.163 0.256-1.016 1.007 0.145 0.745 0.176 1.111 0.853 0.884 0.674-0.231 0.932-0.971 0.707-1.41C25.144 45.516 24.945 45.488 24.826 45.473z" fill="#ff4136" data-fill-palette-color="accent"></path><path d="M43.396 35.651c-0.446-0.823-0.008-1.185 0.546-1.114 0.554 0.073 0.858 0.841 1.42 2.096 0.563 1.257 2.974 8.758 3.152 9.237 0.182 0.48 0.511 0.43 0.582-0.744 0.071-1.171 0.219-3.518 0.038-4.634-0.177-1.116 0.062-1.084 0.309-0.507 0.247 0.579 0.34 3.594 1.407-0.272 1.069-3.864 3.839-12.784 6.598-16.611-1.287 4.292-4.33 12.177-5.006 14.908-0.68 2.733-1.417 6.552-1.5 7.178-0.082 0.626 0.147 0.744 0.704 0.181 0.557-0.565 1.299-1.924 1.972-2.746-1.336 2.829-2.397 4.784-2.796 4.731-0.393-0.05-0.482-0.607-0.265-1.673 0.22-1.062 0.519-2.753 0.078-2.446-0.445 0.305-0.556-0.073-1.072 2.043-0.518 2.12-0.993 5.149-1.618 2.521-0.628-2.629-1.253-5.257-1.84-6.336C45.521 40.387 44.822 38.292 43.396 35.651z" fill="#ff4136" data-fill-palette-color="accent"></path><path d="M49.053 38.027c0.073-1.176-1.668-9.5-2.318-11.949-0.192-0.738-0.315-3.54 0.323-1.235 1.098 3.964 2.141 10.198 2.273 11.033C49.465 36.714 49.034 36.929 49.053 38.027z" fill="#ff4136" data-fill-palette-color="accent"></path><path d="M46.303 30.023c-0.248-0.579-1.082-1.598-1.321-1.627-0.331 0.686-0.489 0.667-0.038 0.906C45.398 29.543 45.771 29.771 46.303 30.023z" fill="#ff4136" data-fill-palette-color="accent"></path><path d="M53.211 45.753c-0.964 1.655-1.04 2.411 0.006 1.186 1.044-1.23 1.844-2.399 1.938-3.116 0.095-0.715 0.406-1.498 1.188-2.302 1.956-2.021 6.682-8.593 8.874-9.945 2.192-1.354 3.882-5.046 5.111-5.797-6.181 4.109-13.175 10.752-14.784 13.818 3.618-4.259 5.45-5.934 6.73-6.494 1.282-0.562 1.026-0.415-0.25 0.694C57.931 37.358 56.015 40.931 53.211 45.753z" fill="#ff4136" data-fill-palette-color="accent"></path><path d="M61.162 43.514c-2.326 1.152-7.217 3.7-9.891 9.996 1.642-0.238 1.576-0.341 1.916-0.75-0.886-0.025-0.726-0.642-0.259-1.129 0.465-0.483 2.79-4.095 9.184-7.994C61.491 43.464 61.162 43.514 61.162 43.514z" fill="#ff4136" data-fill-palette-color="accent"></path><path d="M55.059 56.643c-2.442-1.048-1.861-2.107-0.209-3.032 2.145-1.196 3.701-2.434 5.745-2.62 2.04-0.191 4.23-0.905 5.047-1.616 0.818-0.711 7.295-0.873 8.832-0.308 1.538 0.562 1.956 1.406-0.978 1.33-9.647-0.256-17.98 3.666-19.048 4.436-1.068 0.769-0.701 1.046-0.243 0.925 0.461-0.121 1.653 0.624 2.259 0.931C55.697 56.68 55.372 56.728 55.059 56.643z" fill="#ff4136" data-fill-palette-color="accent"></path><path d="M87.016 29.753c-0.813 0.4-3.492 1.381-4.655 1.901-1.161 0.521-1.833 0.46-1.228 0.935C81.742 33.062 85.563 31.015 87.016 29.753z" fill="#ff4136" data-fill-palette-color="accent"></path><path d="M75.58 35.786c0.652-0.492 1.409-1.329 2.09-1.085 0.674 0.245-0.09 2.117-1.209 2.703-1.121 0.59-3.624 0.988-5.111 1.148C74.902 36.76 75.049 36.299 75.58 35.786z" fill="#ff4136" data-fill-palette-color="accent"></path><path d="M43.956 50.556c-0.443-0.332-0.552-1.347-1.109-1.419-0.051-0.825 0.381-1.042 0.707-0.454C43.879 49.271 43.665 49.7 43.956 50.556z" fill="#ff4136" data-fill-palette-color="accent"></path><path d="M31.464 45.518c-1.429-0.185-1.532-0.018-1.673 0.464-0.145 0.481 0.03 0.688 0.337 0.502C30.434 46.293 30.41 45.564 31.464 45.518z" fill="#ff4136" data-fill-palette-color="accent"></path><path d="M65.309 38.789c-0.9 0.307-1.261 1.016-1.014 1.596 0.25 0.579 2.147 2.1 2.31 0.847C66.768 39.979 66.66 38.325 65.309 38.789z" fill="#ff4136" data-fill-palette-color="accent"></path><path d="M63.201 9.307c-1.045 0.592-1.418 0.362-2.641 2.294-1.049 1.668-0.283 3.421 0.47 2.612C61.781 13.398 61.928 10.416 63.201 9.307z" fill="#ff4136" data-fill-palette-color="accent"></path></g><polygon points="36.5,59.5 32,58.25 33.25,61.5 34.75,62.5 " fill="#ff4136" data-fill-palette-color="accent"></polygon><polygon points="27.81,57.792 29.551,55.467 27.385,55.457 26.467,56.1 " fill="#ff4136" data-fill-palette-color="accent"></polygon><polygon points="17.37,52.62 18.625,51 17.02,50.96 16.349,51.401 " fill="#ff4136" data-fill-palette-color="accent"></polygon></svg></g></svg></g><g></g></svg></g></svg></g></svg></g></svg></g><defs></defs></svg><rect width="320" height="360" fill="none" stroke="none" visibility="hidden"></rect></g></svg></g></svg>